<?xml version="1.0" encoding="UTF-8"?>
<svg width="60px" height="36px" viewBox="0 0 60 36" version="1.1" xmlns="http://www.w3.org/2000/svg">
    <title>86CA3AA7-24DE-416E-AEB1-796634C11C43</title>
    <g id="Main" stroke="none" stroke-width="1" fill="none" fill-rule="evenodd">
        <g id="Input-Components-" transform="translate(-222.000000, -512.000000)">
            <g id="Group-2" transform="translate(87.000000, 27.000000)">
                <g id="check-box-/-toggle-/-unselected" transform="translate(135.000000, 485.000000)">
                    <path d="M18,0 L42,0 C51.9411255,-1.82615513e-15 60,8.0588745 60,18 C60,27.9411255 51.9411255,36 42,36 L18,36 C8.0588745,36 1.21743675e-15,27.9411255 0,18 C-1.21743675e-15,8.0588745 8.0588745,1.82615513e-15 18,0 Z" id="shape" fill="#CCCCCC"></path>
                    <path d="M18,2 C26.836556,2 34,9.163444 34,18 C34,26.836556 26.836556,34 18,34 C9.163444,34 2,26.836556 2,18 C2,9.163444 9.163444,2 18,2 Z" id="shape" stroke="#CCCCCC" stroke-width="4" fill="#FFFFFF"></path>
                </g>
            </g>
        </g>
    </g>
</svg>