<?xml version="1.0" encoding="UTF-8"?>
<svg width="60px" height="36px" viewBox="0 0 60 36" version="1.1" xmlns="http://www.w3.org/2000/svg">
    <title>0CD588FC-F07B-4D8A-84CD-E7C8AFD45D00</title>
    <g id="Main" stroke="none" stroke-width="1" fill="none" fill-rule="evenodd">
        <g id="Input-Components-" transform="translate(-663.000000, -511.000000)">
            <g id="Group-2" transform="translate(87.000000, 27.000000)">
                <g id="check-box-/-toggle-/-selected" transform="translate(576.000000, 484.000000)">
                    <path d="M18,0 L42,0 C51.9411255,-1.82615513e-15 60,8.0588745 60,18 C60,27.9411255 51.9411255,36 42,36 L18,36 C8.0588745,36 1.21743675e-15,27.9411255 0,18 C-1.21743675e-15,8.0588745 8.0588745,1.82615513e-15 18,0 Z" id="shape" fill="#26A69A"></path>
                    <path d="M42,2 C50.836556,2 58,9.163444 58,18 C58,26.836556 50.836556,34 42,34 C33.163444,34 26,26.836556 26,18 C26,9.163444 33.163444,2 42,2 Z" id="shape" stroke="#26A69A" stroke-width="4" fill="#FFFFFF"></path>
                </g>
            </g>
        </g>
    </g>
</svg>