<?xml version="1.0" encoding="UTF-8"?>
<svg width="36px" height="36px" viewBox="0 0 36 36" version="1.1" xmlns="http://www.w3.org/2000/svg">
    <title>0329905C-0337-4B7D-9FE2-BCCBC5EC7F94</title>
    <g id="Main" stroke="none" stroke-width="1" fill="none" fill-rule="evenodd">
        <g id="Input-Components-" transform="translate(-222.000000, -309.000000)">
            <g id="Group-2" transform="translate(87.000000, 27.000000)">
                <g id="check-box-/-active,-unselected" transform="translate(135.000000, 282.000000)">
                    <g id="unselected">
                        <g id="icon-box">
                            <polygon id="box" points="0 0 36 0 36 36 0 36"></polygon>
                            <path d="M11.1277704,6 L24.8722296,6 C26.6552671,6 27.3018396,6.18565122 27.9536914,6.53426541 C28.6055433,6.88287959 29.1171204,7.39445674 29.4657346,8.04630859 C29.8143488,8.69816044 30,9.34473292 30,11.1277704 L30,24.8722296 C30,26.6552671 29.8143488,27.3018396 29.4657346,27.9536914 C29.1171204,28.6055433 28.6055433,29.1171204 27.9536914,29.4657346 C27.3018396,29.8143488 26.6552671,30 24.8722296,30 L11.1277704,30 C9.34473292,30 8.69816044,29.8143488 8.04630859,29.4657346 C7.39445674,29.1171204 6.88287959,28.6055433 6.53426541,27.9536914 C6.18565122,27.3018396 6,26.6552671 6,24.8722296 L6,11.1277704 C6,9.34473292 6.18565122,8.69816044 6.53426541,8.04630859 C6.88287959,7.39445674 7.39445674,6.88287959 8.04630859,6.53426541 C8.69816044,6.18565122 9.34473292,6 11.1277704,6 Z" id="shape" stroke="#CCCCCC" stroke-width="2"></path>
                        </g>
                    </g>
                </g>
            </g>
        </g>
    </g>
</svg>