<?xml version="1.0" encoding="UTF-8" standalone="no"?>
<!DOCTYPE svg PUBLIC "-//W3C//DTD SVG 1.1//EN"
 "http://www.w3.org/Graphics/SVG/1.1/DTD/svg11.dtd">
<!-- Generated by graphviz version 2.40.1 (20161225.0304)
 -->
<!-- Title: diagram Pages: 1 -->
<svg width="388pt" height="260pt"
 viewBox="0.00 0.00 388.29 260.00" xmlns="http://www.w3.org/2000/svg" xmlns:xlink="http://www.w3.org/1999/xlink">
<g id="graph0" class="graph" transform="scale(1 1) rotate(0) translate(4 256)">
<title>diagram</title>
<polygon fill="#ffffff" stroke="transparent" points="-4,4 -4,-256 384.2907,-256 384.2907,4 -4,4"/>
<!-- BifrostLocalInterface -->
<g id="node1" class="node">
<title>BifrostLocalInterface</title>
<ellipse fill="#ff8c00" stroke="#000000" cx="107.5461" cy="-234" rx="86.3847" ry="18"/>
<text text-anchor="middle" x="107.5461" y="-230.3" font-family="Times,serif" font-size="14.00" fill="#000000">BifrostLocalInterface</text>
</g>
<!-- ActorRef -->
<g id="node2" class="node">
<title>ActorRef</title>
<ellipse fill="none" stroke="#000000" cx="43.5461" cy="-162" rx="43.5923" ry="18"/>
<text text-anchor="middle" x="43.5461" y="-158.3" font-family="Times,serif" font-size="14.00" fill="#000000">ActorRef</text>
</g>
<!-- BifrostLocalInterface&#45;&gt;ActorRef -->
<g id="edge1" class="edge">
<title>BifrostLocalInterface&#45;&gt;ActorRef</title>
<path fill="none" stroke="#000000" d="M85.8102,-216.2022C77.2718,-207.5704 67.7229,-197.0439 59.7848,-187.5717"/>
<polygon fill="#000000" stroke="#000000" points="62.3171,-185.1384 53.2894,-179.593 56.8885,-189.5578 62.3171,-185.1384"/>
</g>
<!-- BifrostLocalInterface&#45;&gt;ActorRef -->
<g id="edge2" class="edge">
<title>BifrostLocalInterface&#45;&gt;ActorRef</title>
<path fill="none" stroke="#000000" d="M97.3486,-215.8314C90.0972,-206.669 80.2635,-195.445 70.9248,-185.6213"/>
<polygon fill="#000000" stroke="#000000" points="73.4151,-183.1617 63.931,-178.4393 68.4001,-188.0454 73.4151,-183.1617"/>
</g>
<!-- ForgingSettings -->
<g id="node3" class="node">
<title>ForgingSettings</title>
<ellipse fill="#5f9ea0" stroke="#000000" cx="171.5461" cy="-162" rx="66.8882" ry="18"/>
<text text-anchor="middle" x="171.5461" y="-158.3" font-family="Times,serif" font-size="14.00" fill="#000000">ForgingSettings</text>
</g>
<!-- BifrostLocalInterface&#45;&gt;ForgingSettings -->
<g id="edge3" class="edge">
<title>BifrostLocalInterface&#45;&gt;ForgingSettings</title>
<path fill="none" stroke="#000000" d="M123.3664,-216.2022C131.1166,-207.4832 140.5852,-196.8311 149.0706,-187.2849"/>
<polygon fill="#000000" stroke="#000000" points="151.8802,-189.3924 155.9079,-179.593 146.6483,-184.7419 151.8802,-189.3924"/>
</g>
<!-- LocalInterface -->
<g id="node4" class="node">
<title>LocalInterface</title>
<ellipse fill="#5f9ea0" stroke="#000000" cx="318.5461" cy="-162" rx="61.99" ry="18"/>
<text text-anchor="middle" x="318.5461" y="-158.3" font-family="Times,serif" font-size="14.00" fill="#000000">LocalInterface</text>
</g>
<!-- BifrostLocalInterface&#45;&gt;LocalInterface -->
<g id="edge4" class="edge">
<title>BifrostLocalInterface&#45;&gt;LocalInterface</title>
<path fill="none" stroke="#000000" d="M152.8109,-218.5542C186.9019,-206.9213 233.6124,-190.9821 268.7568,-178.9897"/>
<polygon fill="#000000" stroke="#000000" points="270.0087,-182.2608 278.3426,-175.7188 267.748,-175.6358 270.0087,-182.2608"/>
</g>
<!-- Settings -->
<g id="node5" class="node">
<title>Settings</title>
<ellipse fill="#5f9ea0" stroke="#000000" cx="106.5461" cy="-90" rx="38.9931" ry="18"/>
<text text-anchor="middle" x="106.5461" y="-86.3" font-family="Times,serif" font-size="14.00" fill="#000000">Settings</text>
</g>
<!-- ForgingSettings&#45;&gt;Settings -->
<g id="edge5" class="edge">
<title>ForgingSettings&#45;&gt;Settings</title>
<path fill="none" stroke="#000000" d="M155.4787,-144.2022C147.41,-135.2646 137.5075,-124.2957 128.7265,-114.569"/>
<polygon fill="#000000" stroke="#000000" points="131.2801,-112.1746 121.9811,-107.0972 126.0842,-116.8653 131.2801,-112.1746"/>
</g>
<!-- ForgingConstants -->
<g id="node6" class="node">
<title>ForgingConstants</title>
<ellipse fill="#5f9ea0" stroke="#000000" cx="236.5461" cy="-90" rx="73.387" ry="18"/>
<text text-anchor="middle" x="236.5461" y="-86.3" font-family="Times,serif" font-size="14.00" fill="#000000">ForgingConstants</text>
</g>
<!-- ForgingSettings&#45;&gt;ForgingConstants -->
<g id="edge6" class="edge">
<title>ForgingSettings&#45;&gt;ForgingConstants</title>
<path fill="none" stroke="#000000" d="M187.6136,-144.2022C195.4849,-135.4832 205.1014,-124.8311 213.7194,-115.2849"/>
<polygon fill="#000000" stroke="#000000" points="216.5604,-117.3611 220.6635,-107.593 211.3645,-112.6704 216.5604,-117.3611"/>
</g>
<!-- ScorexLogging -->
<g id="node7" class="node">
<title>ScorexLogging</title>
<ellipse fill="#5f9ea0" stroke="#000000" cx="106.5461" cy="-18" rx="64.9885" ry="18"/>
<text text-anchor="middle" x="106.5461" y="-14.3" font-family="Times,serif" font-size="14.00" fill="#000000">ScorexLogging</text>
</g>
<!-- Settings&#45;&gt;ScorexLogging -->
<g id="edge7" class="edge">
<title>Settings&#45;&gt;ScorexLogging</title>
<path fill="none" stroke="#000000" d="M106.5461,-71.8314C106.5461,-64.131 106.5461,-54.9743 106.5461,-46.4166"/>
<polygon fill="#000000" stroke="#000000" points="110.0462,-46.4132 106.5461,-36.4133 103.0462,-46.4133 110.0462,-46.4132"/>
</g>
</g>
</svg>
