<?xml version="1.0" encoding="UTF-8" standalone="no"?>
<!DOCTYPE svg PUBLIC "-//W3C//DTD SVG 1.1//EN"
 "http://www.w3.org/Graphics/SVG/1.1/DTD/svg11.dtd">
<!-- Generated by graphviz version 2.40.1 (20161225.0304)
 -->
<!-- Title: diagram Pages: 1 -->
<svg width="425pt" height="260pt"
 viewBox="0.00 0.00 424.74 260.00" xmlns="http://www.w3.org/2000/svg" xmlns:xlink="http://www.w3.org/1999/xlink">
<g id="graph0" class="graph" transform="scale(1 1) rotate(0) translate(4 256)">
<title>diagram</title>
<polygon fill="#ffffff" stroke="transparent" points="-4,4 -4,-256 420.7353,-256 420.7353,4 -4,4"/>
<!-- ForgingSettings -->
<g id="node1" class="node">
<title>ForgingSettings</title>
<ellipse fill="#5f9ea0" stroke="#000000" cx="129.9942" cy="-162" rx="66.8882" ry="18"/>
<text text-anchor="middle" x="129.9942" y="-158.3" font-family="Times,serif" font-size="14.00" fill="#000000">ForgingSettings</text>
</g>
<!-- Settings -->
<g id="node2" class="node">
<title>Settings</title>
<ellipse fill="#5f9ea0" stroke="#000000" cx="64.9942" cy="-90" rx="38.9931" ry="18"/>
<text text-anchor="middle" x="64.9942" y="-86.3" font-family="Times,serif" font-size="14.00" fill="#000000">Settings</text>
</g>
<!-- ForgingSettings&#45;&gt;Settings -->
<g id="edge1" class="edge">
<title>ForgingSettings&#45;&gt;Settings</title>
<path fill="none" stroke="#000000" d="M113.9268,-144.2022C105.8581,-135.2646 95.9556,-124.2957 87.1746,-114.569"/>
<polygon fill="#000000" stroke="#000000" points="89.7282,-112.1746 80.4292,-107.0972 84.5323,-116.8653 89.7282,-112.1746"/>
</g>
<!-- ForgingConstants -->
<g id="node3" class="node">
<title>ForgingConstants</title>
<ellipse fill="#5f9ea0" stroke="#000000" cx="194.9942" cy="-90" rx="73.387" ry="18"/>
<text text-anchor="middle" x="194.9942" y="-86.3" font-family="Times,serif" font-size="14.00" fill="#000000">ForgingConstants</text>
</g>
<!-- ForgingSettings&#45;&gt;ForgingConstants -->
<g id="edge2" class="edge">
<title>ForgingSettings&#45;&gt;ForgingConstants</title>
<path fill="none" stroke="#000000" d="M146.0617,-144.2022C153.933,-135.4832 163.5495,-124.8311 172.1675,-115.2849"/>
<polygon fill="#000000" stroke="#000000" points="175.0085,-117.3611 179.1116,-107.593 169.8126,-112.6704 175.0085,-117.3611"/>
</g>
<!-- ScorexLogging -->
<g id="node6" class="node">
<title>ScorexLogging</title>
<ellipse fill="#5f9ea0" stroke="#000000" cx="64.9942" cy="-18" rx="64.9885" ry="18"/>
<text text-anchor="middle" x="64.9942" y="-14.3" font-family="Times,serif" font-size="14.00" fill="#000000">ScorexLogging</text>
</g>
<!-- Settings&#45;&gt;ScorexLogging -->
<g id="edge5" class="edge">
<title>Settings&#45;&gt;ScorexLogging</title>
<path fill="none" stroke="#000000" d="M64.9942,-71.8314C64.9942,-64.131 64.9942,-54.9743 64.9942,-46.4166"/>
<polygon fill="#000000" stroke="#000000" points="68.4943,-46.4132 64.9942,-36.4133 61.4943,-46.4133 68.4943,-46.4132"/>
</g>
<!-- GenericNodeViewHolder -->
<g id="node4" class="node">
<title>GenericNodeViewHolder</title>
<ellipse fill="#5f9ea0" stroke="#000000" cx="315.9942" cy="-162" rx="100.9827" ry="18"/>
<text text-anchor="middle" x="315.9942" y="-158.3" font-family="Times,serif" font-size="14.00" fill="#000000">GenericNodeViewHolder</text>
</g>
<!-- BifrostNodeViewHolder -->
<g id="node5" class="node">
<title>BifrostNodeViewHolder</title>
<ellipse fill="#ff8c00" stroke="#000000" cx="222.9942" cy="-234" rx="97.4827" ry="18"/>
<text text-anchor="middle" x="222.9942" y="-230.3" font-family="Times,serif" font-size="14.00" fill="#000000">BifrostNodeViewHolder</text>
</g>
<!-- BifrostNodeViewHolder&#45;&gt;ForgingSettings -->
<g id="edge3" class="edge">
<title>BifrostNodeViewHolder&#45;&gt;ForgingSettings</title>
<path fill="none" stroke="#000000" d="M200.0055,-216.2022C188.0038,-206.9106 173.1665,-195.4237 160.2443,-185.4194"/>
<polygon fill="#000000" stroke="#000000" points="162.128,-182.4515 152.0781,-179.0972 157.8428,-187.9865 162.128,-182.4515"/>
</g>
<!-- BifrostNodeViewHolder&#45;&gt;GenericNodeViewHolder -->
<g id="edge4" class="edge">
<title>BifrostNodeViewHolder&#45;&gt;GenericNodeViewHolder</title>
<path fill="none" stroke="#000000" d="M245.983,-216.2022C257.8082,-207.0473 272.3862,-195.761 285.1729,-185.8617"/>
<polygon fill="#000000" stroke="#000000" points="287.5053,-188.4823 293.2699,-179.593 283.22,-182.9473 287.5053,-188.4823"/>
</g>
</g>
</svg>
