<?xml version="1.0" encoding="UTF-8" standalone="no"?>
<!DOCTYPE svg PUBLIC "-//W3C//DTD SVG 1.1//EN"
 "http://www.w3.org/Graphics/SVG/1.1/DTD/svg11.dtd">
<!-- Generated by graphviz version 2.40.1 (20161225.0304)
 -->
<!-- Title: diagram Pages: 1 -->
<svg width="357pt" height="188pt"
 viewBox="0.00 0.00 357.14 188.00" xmlns="http://www.w3.org/2000/svg" xmlns:xlink="http://www.w3.org/1999/xlink">
<g id="graph0" class="graph" transform="scale(1 1) rotate(0) translate(4 184)">
<title>diagram</title>
<polygon fill="#ffffff" stroke="transparent" points="-4,4 -4,-184 353.139,-184 353.139,4 -4,4"/>
<!-- ScorexLogging -->
<g id="node1" class="node">
<title>ScorexLogging</title>
<ellipse fill="#5f9ea0" stroke="#000000" cx="79.9429" cy="-18" rx="64.9885" ry="18"/>
<text text-anchor="middle" x="79.9429" y="-14.3" font-family="Times,serif" font-size="14.00" fill="#000000">ScorexLogging</text>
</g>
<!-- GenericApplication -->
<g id="node2" class="node">
<title>GenericApplication</title>
<ellipse fill="#5f9ea0" stroke="#000000" cx="79.9429" cy="-90" rx="79.8859" ry="18"/>
<text text-anchor="middle" x="79.9429" y="-86.3" font-family="Times,serif" font-size="14.00" fill="#000000">GenericApplication</text>
</g>
<!-- GenericApplication&#45;&gt;ScorexLogging -->
<g id="edge1" class="edge">
<title>GenericApplication&#45;&gt;ScorexLogging</title>
<path fill="none" stroke="#000000" d="M79.9429,-71.8314C79.9429,-64.131 79.9429,-54.9743 79.9429,-46.4166"/>
<polygon fill="#000000" stroke="#000000" points="83.443,-46.4132 79.9429,-36.4133 76.443,-46.4133 83.443,-46.4132"/>
</g>
<!-- BifrostApp -->
<g id="node3" class="node">
<title>BifrostApp</title>
<ellipse fill="#ff8c00" stroke="#000000" cx="209.9429" cy="-162" rx="50.0912" ry="18"/>
<text text-anchor="middle" x="209.9429" y="-158.3" font-family="Times,serif" font-size="14.00" fill="#000000">BifrostApp</text>
</g>
<!-- BifrostApp&#45;&gt;GenericApplication -->
<g id="edge3" class="edge">
<title>BifrostApp&#45;&gt;GenericApplication</title>
<path fill="none" stroke="#000000" d="M182.3733,-146.7307C163.9348,-136.5186 139.4005,-122.9304 118.966,-111.6128"/>
<polygon fill="#000000" stroke="#000000" points="120.6403,-108.5392 110.1966,-106.7559 117.2488,-114.6627 120.6403,-108.5392"/>
</g>
<!-- String -->
<g id="node4" class="node">
<title>String</title>
<ellipse fill="none" stroke="#000000" cx="209.9429" cy="-90" rx="32.4942" ry="18"/>
<text text-anchor="middle" x="209.9429" y="-86.3" font-family="Times,serif" font-size="14.00" fill="#000000">String</text>
</g>
<!-- BifrostApp&#45;&gt;String -->
<g id="edge2" class="edge">
<title>BifrostApp&#45;&gt;String</title>
<path fill="none" stroke="#000000" d="M209.9429,-143.8314C209.9429,-136.131 209.9429,-126.9743 209.9429,-118.4166"/>
<polygon fill="#000000" stroke="#000000" points="213.443,-118.4132 209.9429,-108.4133 206.443,-118.4133 213.443,-118.4132"/>
</g>
<!-- Runnable -->
<g id="node5" class="node">
<title>Runnable</title>
<ellipse fill="none" stroke="#000000" cx="304.9429" cy="-90" rx="44.393" ry="18"/>
<text text-anchor="middle" x="304.9429" y="-86.3" font-family="Times,serif" font-size="14.00" fill="#000000">Runnable</text>
</g>
<!-- BifrostApp&#45;&gt;Runnable -->
<g id="edge4" class="edge">
<title>BifrostApp&#45;&gt;Runnable</title>
<path fill="none" stroke="#000000" d="M231.4999,-145.6621C244.588,-135.7427 261.4668,-122.9503 275.7424,-112.1309"/>
<polygon fill="#000000" stroke="#000000" points="277.9429,-114.8549 283.7985,-106.0252 273.7147,-109.2761 277.9429,-114.8549"/>
</g>
</g>
</svg>
