<?xml version="1.0" encoding="UTF-8" standalone="no"?>
<!DOCTYPE svg PUBLIC "-//W3C//DTD SVG 1.1//EN"
 "http://www.w3.org/Graphics/SVG/1.1/DTD/svg11.dtd">
<!-- Generated by graphviz version 2.40.1 (20161225.0304)
 -->
<!-- Title: diagram Pages: 1 -->
<svg width="618pt" height="332pt"
 viewBox="0.00 0.00 618.28 332.00" xmlns="http://www.w3.org/2000/svg" xmlns:xlink="http://www.w3.org/1999/xlink">
<g id="graph0" class="graph" transform="scale(1 1) rotate(0) translate(4 328)">
<title>diagram</title>
<polygon fill="#ffffff" stroke="transparent" points="-4,4 -4,-328 614.2837,-328 614.2837,4 -4,4"/>
<!-- BifrostStorage -->
<g id="node1" class="node">
<title>BifrostStorage</title>
<ellipse fill="#ff8c00" stroke="#000000" cx="128.0957" cy="-234" rx="61.99" ry="18"/>
<text text-anchor="middle" x="128.0957" y="-230.3" font-family="Times,serif" font-size="14.00" fill="#000000">BifrostStorage</text>
</g>
<!-- LSMStore -->
<g id="node2" class="node">
<title>LSMStore</title>
<ellipse fill="none" stroke="#000000" cx="48.0957" cy="-162" rx="48.1917" ry="18"/>
<text text-anchor="middle" x="48.0957" y="-158.3" font-family="Times,serif" font-size="14.00" fill="#000000">LSMStore</text>
</g>
<!-- BifrostStorage&#45;&gt;LSMStore -->
<g id="edge1" class="edge">
<title>BifrostStorage&#45;&gt;LSMStore</title>
<path fill="none" stroke="#000000" d="M108.73,-216.5708C98.3601,-207.2379 85.4423,-195.6119 74.1977,-185.4918"/>
<polygon fill="#000000" stroke="#000000" points="76.5067,-182.8611 66.7323,-178.7729 71.8239,-188.0641 76.5067,-182.8611"/>
</g>
<!-- ForgingSettings -->
<g id="node3" class="node">
<title>ForgingSettings</title>
<ellipse fill="#5f9ea0" stroke="#000000" cx="222.0957" cy="-162" rx="66.8882" ry="18"/>
<text text-anchor="middle" x="222.0957" y="-158.3" font-family="Times,serif" font-size="14.00" fill="#000000">ForgingSettings</text>
</g>
<!-- BifrostStorage&#45;&gt;ForgingSettings -->
<g id="edge2" class="edge">
<title>BifrostStorage&#45;&gt;ForgingSettings</title>
<path fill="none" stroke="#000000" d="M150.3724,-216.937C162.6914,-207.5012 178.1783,-195.6389 191.6056,-185.3541"/>
<polygon fill="#000000" stroke="#000000" points="193.8427,-188.0494 199.6532,-179.19 189.5861,-182.4923 193.8427,-188.0494"/>
</g>
<!-- ScorexLogging -->
<g id="node4" class="node">
<title>ScorexLogging</title>
<ellipse fill="#5f9ea0" stroke="#000000" cx="239.0957" cy="-18" rx="64.9885" ry="18"/>
<text text-anchor="middle" x="239.0957" y="-14.3" font-family="Times,serif" font-size="14.00" fill="#000000">ScorexLogging</text>
</g>
<!-- BifrostStorage&#45;&gt;ScorexLogging -->
<g id="edge3" class="edge">
<title>BifrostStorage&#45;&gt;ScorexLogging</title>
<path fill="none" stroke="#000000" d="M124.7104,-215.9756C119.7451,-184.098 113.9705,-116.9069 143.0957,-72 153.4556,-56.0266 170.2777,-44.31 186.9686,-35.9552"/>
<polygon fill="#000000" stroke="#000000" points="188.6042,-39.0544 196.186,-31.6539 185.644,-32.7111 188.6042,-39.0544"/>
</g>
<!-- Settings -->
<g id="node5" class="node">
<title>Settings</title>
<ellipse fill="#5f9ea0" stroke="#000000" cx="355.0957" cy="-90" rx="38.9931" ry="18"/>
<text text-anchor="middle" x="355.0957" y="-86.3" font-family="Times,serif" font-size="14.00" fill="#000000">Settings</text>
</g>
<!-- ForgingSettings&#45;&gt;Settings -->
<g id="edge4" class="edge">
<title>ForgingSettings&#45;&gt;Settings</title>
<path fill="none" stroke="#000000" d="M251.9435,-145.8418C272.2249,-134.8624 299.1208,-120.3022 320.3635,-108.8024"/>
<polygon fill="#000000" stroke="#000000" points="322.2552,-111.7583 329.383,-103.9197 318.9227,-105.6025 322.2552,-111.7583"/>
</g>
<!-- ForgingConstants -->
<g id="node6" class="node">
<title>ForgingConstants</title>
<ellipse fill="#5f9ea0" stroke="#000000" cx="225.0957" cy="-90" rx="73.387" ry="18"/>
<text text-anchor="middle" x="225.0957" y="-86.3" font-family="Times,serif" font-size="14.00" fill="#000000">ForgingConstants</text>
</g>
<!-- ForgingSettings&#45;&gt;ForgingConstants -->
<g id="edge5" class="edge">
<title>ForgingSettings&#45;&gt;ForgingConstants</title>
<path fill="none" stroke="#000000" d="M222.8528,-143.8314C223.1736,-136.131 223.5551,-126.9743 223.9117,-118.4166"/>
<polygon fill="#000000" stroke="#000000" points="227.4091,-118.5503 224.3285,-108.4133 220.4151,-118.2589 227.4091,-118.5503"/>
</g>
<!-- Settings&#45;&gt;ScorexLogging -->
<g id="edge6" class="edge">
<title>Settings&#45;&gt;ScorexLogging</title>
<path fill="none" stroke="#000000" d="M331.6214,-75.4297C315.1619,-65.2135 292.8698,-51.377 274.291,-39.8453"/>
<polygon fill="#000000" stroke="#000000" points="276.1235,-36.8634 265.7813,-34.5634 272.4319,-42.8109 276.1235,-36.8634"/>
</g>
<!-- History -->
<g id="node7" class="node">
<title>History</title>
<ellipse fill="#5f9ea0" stroke="#000000" cx="285.0957" cy="-234" rx="37.0935" ry="18"/>
<text text-anchor="middle" x="285.0957" y="-230.3" font-family="Times,serif" font-size="14.00" fill="#000000">History</text>
</g>
<!-- BifrostHistory -->
<g id="node8" class="node">
<title>BifrostHistory</title>
<ellipse fill="#ff8c00" stroke="#000000" cx="252.0957" cy="-306" rx="61.99" ry="18"/>
<text text-anchor="middle" x="252.0957" y="-302.3" font-family="Times,serif" font-size="14.00" fill="#000000">BifrostHistory</text>
</g>
<!-- BifrostHistory&#45;&gt;BifrostStorage -->
<g id="edge7" class="edge">
<title>BifrostHistory&#45;&gt;BifrostStorage</title>
<path fill="none" stroke="#000000" d="M224.2677,-289.8418C206.6379,-279.6052 183.6474,-266.2558 164.5658,-255.1762"/>
<polygon fill="#000000" stroke="#000000" points="166.2363,-252.0989 155.8309,-250.1043 162.7213,-258.1524 166.2363,-252.0989"/>
</g>
<!-- BifrostHistory&#45;&gt;ForgingSettings -->
<g id="edge8" class="edge">
<title>BifrostHistory&#45;&gt;ForgingSettings</title>
<path fill="none" stroke="#000000" d="M247.4163,-287.5573C244.835,-277.1464 241.6459,-263.8793 239.0957,-252 234.6526,-231.3029 230.2333,-207.7938 227.0146,-189.9942"/>
<polygon fill="#000000" stroke="#000000" points="230.4297,-189.2087 225.2218,-179.9823 223.5393,-190.4427 230.4297,-189.2087"/>
</g>
<!-- BifrostHistory&#45;&gt;History -->
<g id="edge10" class="edge">
<title>BifrostHistory&#45;&gt;History</title>
<path fill="none" stroke="#000000" d="M260.423,-287.8314C264.1248,-279.7547 268.5608,-270.0761 272.6443,-261.1668"/>
<polygon fill="#000000" stroke="#000000" points="275.9005,-262.4624 276.8854,-251.9134 269.5371,-259.5458 275.9005,-262.4624"/>
</g>
<!-- Seq[BlockValidator[BifrostBlock]] -->
<g id="node9" class="node">
<title>Seq[BlockValidator[BifrostBlock]]</title>
<ellipse fill="none" stroke="#000000" cx="475.0957" cy="-234" rx="135.3763" ry="18"/>
<text text-anchor="middle" x="475.0957" y="-230.3" font-family="Times,serif" font-size="14.00" fill="#000000">Seq[BlockValidator[BifrostBlock]]</text>
</g>
<!-- BifrostHistory&#45;&gt;Seq[BlockValidator[BifrostBlock]] -->
<g id="edge9" class="edge">
<title>BifrostHistory&#45;&gt;Seq[BlockValidator[BifrostBlock]]</title>
<path fill="none" stroke="#000000" d="M293.5177,-292.6261C327.1644,-281.7626 375.1288,-266.2763 413.3119,-253.9481"/>
<polygon fill="#000000" stroke="#000000" points="414.8558,-257.1276 423.2967,-250.7244 412.705,-250.4662 414.8558,-257.1276"/>
</g>
</g>
</svg>
