<?xml version="1.0" encoding="UTF-8" standalone="no"?>
<!DOCTYPE svg PUBLIC "-//W3C//DTD SVG 1.1//EN"
 "http://www.w3.org/Graphics/SVG/1.1/DTD/svg11.dtd">
<!-- Generated by graphviz version 2.40.1 (20161225.0304)
 -->
<!-- Title: diagram Pages: 1 -->
<svg width="399pt" height="332pt"
 viewBox="0.00 0.00 399.09 332.00" xmlns="http://www.w3.org/2000/svg" xmlns:xlink="http://www.w3.org/1999/xlink">
<g id="graph0" class="graph" transform="scale(1 1) rotate(0) translate(4 328)">
<title>diagram</title>
<polygon fill="#ffffff" stroke="transparent" points="-4,4 -4,-328 395.09,-328 395.09,4 -4,4"/>
<!-- DifficultyBlockValidator -->
<g id="node1" class="node">
<title>DifficultyBlockValidator</title>
<ellipse fill="#ff8c00" stroke="#000000" cx="253.0957" cy="-306" rx="99.3824" ry="18"/>
<text text-anchor="middle" x="253.0957" y="-302.3" font-family="Times,serif" font-size="14.00" fill="#000000">DifficultyBlockValidator</text>
</g>
<!-- BifrostStorage -->
<g id="node2" class="node">
<title>BifrostStorage</title>
<ellipse fill="#ff8c00" stroke="#000000" cx="181.0957" cy="-234" rx="61.99" ry="18"/>
<text text-anchor="middle" x="181.0957" y="-230.3" font-family="Times,serif" font-size="14.00" fill="#000000">BifrostStorage</text>
</g>
<!-- DifficultyBlockValidator&#45;&gt;BifrostStorage -->
<g id="edge1" class="edge">
<title>DifficultyBlockValidator&#45;&gt;BifrostStorage</title>
<path fill="none" stroke="#000000" d="M235.298,-288.2022C226.3382,-279.2425 215.3371,-268.2414 205.5925,-258.4968"/>
<polygon fill="#000000" stroke="#000000" points="207.9863,-255.9408 198.4403,-251.3446 203.0365,-260.8906 207.9863,-255.9408"/>
</g>
<!-- BlockValidator -->
<g id="node3" class="node">
<title>BlockValidator</title>
<ellipse fill="#5f9ea0" stroke="#000000" cx="326.0957" cy="-234" rx="64.9885" ry="18"/>
<text text-anchor="middle" x="326.0957" y="-230.3" font-family="Times,serif" font-size="14.00" fill="#000000">BlockValidator</text>
</g>
<!-- DifficultyBlockValidator&#45;&gt;BlockValidator -->
<g id="edge2" class="edge">
<title>DifficultyBlockValidator&#45;&gt;BlockValidator</title>
<path fill="none" stroke="#000000" d="M271.1407,-288.2022C280.2249,-279.2425 291.3788,-268.2414 301.2587,-258.4968"/>
<polygon fill="#000000" stroke="#000000" points="303.8483,-260.8586 308.5103,-251.3446 298.9328,-255.8749 303.8483,-260.8586"/>
</g>
<!-- LSMStore -->
<g id="node4" class="node">
<title>LSMStore</title>
<ellipse fill="none" stroke="#000000" cx="48.0957" cy="-162" rx="48.1917" ry="18"/>
<text text-anchor="middle" x="48.0957" y="-158.3" font-family="Times,serif" font-size="14.00" fill="#000000">LSMStore</text>
</g>
<!-- BifrostStorage&#45;&gt;LSMStore -->
<g id="edge3" class="edge">
<title>BifrostStorage&#45;&gt;LSMStore</title>
<path fill="none" stroke="#000000" d="M151.5787,-218.0209C131.8462,-207.3386 105.7436,-193.2078 84.6913,-181.8111"/>
<polygon fill="#000000" stroke="#000000" points="86.1743,-178.6341 75.714,-176.9512 82.8418,-184.7899 86.1743,-178.6341"/>
</g>
<!-- ForgingSettings -->
<g id="node5" class="node">
<title>ForgingSettings</title>
<ellipse fill="#5f9ea0" stroke="#000000" cx="181.0957" cy="-162" rx="66.8882" ry="18"/>
<text text-anchor="middle" x="181.0957" y="-158.3" font-family="Times,serif" font-size="14.00" fill="#000000">ForgingSettings</text>
</g>
<!-- BifrostStorage&#45;&gt;ForgingSettings -->
<g id="edge4" class="edge">
<title>BifrostStorage&#45;&gt;ForgingSettings</title>
<path fill="none" stroke="#000000" d="M181.0957,-215.8314C181.0957,-208.131 181.0957,-198.9743 181.0957,-190.4166"/>
<polygon fill="#000000" stroke="#000000" points="184.5958,-190.4132 181.0957,-180.4133 177.5958,-190.4133 184.5958,-190.4132"/>
</g>
<!-- ScorexLogging -->
<g id="node6" class="node">
<title>ScorexLogging</title>
<ellipse fill="#5f9ea0" stroke="#000000" cx="166.0957" cy="-18" rx="64.9885" ry="18"/>
<text text-anchor="middle" x="166.0957" y="-14.3" font-family="Times,serif" font-size="14.00" fill="#000000">ScorexLogging</text>
</g>
<!-- BifrostStorage&#45;&gt;ScorexLogging -->
<g id="edge5" class="edge">
<title>BifrostStorage&#45;&gt;ScorexLogging</title>
<path fill="none" stroke="#000000" d="M214.5096,-218.759C230.1766,-209.794 247.477,-196.8741 257.0957,-180 280.9031,-138.2349 287.4573,-113.4443 263.0957,-72 253.4126,-55.5269 236.6816,-43.714 219.8139,-35.4225"/>
<polygon fill="#000000" stroke="#000000" points="221.0244,-32.128 210.4728,-31.1711 218.1247,-38.4992 221.0244,-32.128"/>
</g>
<!-- Settings -->
<g id="node7" class="node">
<title>Settings</title>
<ellipse fill="#5f9ea0" stroke="#000000" cx="51.0957" cy="-90" rx="38.9931" ry="18"/>
<text text-anchor="middle" x="51.0957" y="-86.3" font-family="Times,serif" font-size="14.00" fill="#000000">Settings</text>
</g>
<!-- ForgingSettings&#45;&gt;Settings -->
<g id="edge6" class="edge">
<title>ForgingSettings&#45;&gt;Settings</title>
<path fill="none" stroke="#000000" d="M151.5967,-145.6621C131.7588,-134.6749 105.5569,-120.1631 84.8808,-108.7117"/>
<polygon fill="#000000" stroke="#000000" points="86.547,-105.6336 76.1033,-103.8504 83.1555,-111.7572 86.547,-105.6336"/>
</g>
<!-- ForgingConstants -->
<g id="node8" class="node">
<title>ForgingConstants</title>
<ellipse fill="#5f9ea0" stroke="#000000" cx="181.0957" cy="-90" rx="73.387" ry="18"/>
<text text-anchor="middle" x="181.0957" y="-86.3" font-family="Times,serif" font-size="14.00" fill="#000000">ForgingConstants</text>
</g>
<!-- ForgingSettings&#45;&gt;ForgingConstants -->
<g id="edge7" class="edge">
<title>ForgingSettings&#45;&gt;ForgingConstants</title>
<path fill="none" stroke="#000000" d="M181.0957,-143.8314C181.0957,-136.131 181.0957,-126.9743 181.0957,-118.4166"/>
<polygon fill="#000000" stroke="#000000" points="184.5958,-118.4132 181.0957,-108.4133 177.5958,-118.4133 184.5958,-118.4132"/>
</g>
<!-- Settings&#45;&gt;ScorexLogging -->
<g id="edge8" class="edge">
<title>Settings&#45;&gt;ScorexLogging</title>
<path fill="none" stroke="#000000" d="M74.3677,-75.4297C90.6115,-65.2597 112.5853,-51.5022 130.9536,-40.002"/>
<polygon fill="#000000" stroke="#000000" points="133.0217,-42.8366 139.6402,-34.5634 129.3071,-36.9035 133.0217,-42.8366"/>
</g>
</g>
</svg>
