<?xml version="1.0" encoding="UTF-8" standalone="no"?>
<!DOCTYPE svg PUBLIC "-//W3C//DTD SVG 1.1//EN"
 "http://www.w3.org/Graphics/SVG/1.1/DTD/svg11.dtd">
<!-- Generated by graphviz version 2.40.1 (20161225.0304)
 -->
<!-- Title: diagram Pages: 1 -->
<svg width="527pt" height="260pt"
 viewBox="0.00 0.00 527.44 260.00" xmlns="http://www.w3.org/2000/svg" xmlns:xlink="http://www.w3.org/1999/xlink">
<g id="graph0" class="graph" transform="scale(1 1) rotate(0) translate(4 256)">
<title>diagram</title>
<polygon fill="#ffffff" stroke="transparent" points="-4,4 -4,-256 523.4389,-256 523.4389,4 -4,4"/>
<!-- ForgingSettings -->
<g id="node1" class="node">
<title>ForgingSettings</title>
<ellipse fill="#5f9ea0" stroke="#000000" cx="129.9942" cy="-162" rx="66.8882" ry="18"/>
<text text-anchor="middle" x="129.9942" y="-158.3" font-family="Times,serif" font-size="14.00" fill="#000000">ForgingSettings</text>
</g>
<!-- Settings -->
<g id="node2" class="node">
<title>Settings</title>
<ellipse fill="#5f9ea0" stroke="#000000" cx="64.9942" cy="-90" rx="38.9931" ry="18"/>
<text text-anchor="middle" x="64.9942" y="-86.3" font-family="Times,serif" font-size="14.00" fill="#000000">Settings</text>
</g>
<!-- ForgingSettings&#45;&gt;Settings -->
<g id="edge1" class="edge">
<title>ForgingSettings&#45;&gt;Settings</title>
<path fill="none" stroke="#000000" d="M113.9268,-144.2022C105.8581,-135.2646 95.9556,-124.2957 87.1746,-114.569"/>
<polygon fill="#000000" stroke="#000000" points="89.7282,-112.1746 80.4292,-107.0972 84.5323,-116.8653 89.7282,-112.1746"/>
</g>
<!-- ForgingConstants -->
<g id="node3" class="node">
<title>ForgingConstants</title>
<ellipse fill="#5f9ea0" stroke="#000000" cx="194.9942" cy="-90" rx="73.387" ry="18"/>
<text text-anchor="middle" x="194.9942" y="-86.3" font-family="Times,serif" font-size="14.00" fill="#000000">ForgingConstants</text>
</g>
<!-- ForgingSettings&#45;&gt;ForgingConstants -->
<g id="edge2" class="edge">
<title>ForgingSettings&#45;&gt;ForgingConstants</title>
<path fill="none" stroke="#000000" d="M146.0617,-144.2022C153.933,-135.4832 163.5495,-124.8311 172.1675,-115.2849"/>
<polygon fill="#000000" stroke="#000000" points="175.0085,-117.3611 179.1116,-107.593 169.8126,-112.6704 175.0085,-117.3611"/>
</g>
<!-- ScorexLogging -->
<g id="node8" class="node">
<title>ScorexLogging</title>
<ellipse fill="#5f9ea0" stroke="#000000" cx="64.9942" cy="-18" rx="64.9885" ry="18"/>
<text text-anchor="middle" x="64.9942" y="-14.3" font-family="Times,serif" font-size="14.00" fill="#000000">ScorexLogging</text>
</g>
<!-- Settings&#45;&gt;ScorexLogging -->
<g id="edge7" class="edge">
<title>Settings&#45;&gt;ScorexLogging</title>
<path fill="none" stroke="#000000" d="M64.9942,-71.8314C64.9942,-64.131 64.9942,-54.9743 64.9942,-46.4166"/>
<polygon fill="#000000" stroke="#000000" points="68.4943,-46.4132 64.9942,-36.4133 61.4943,-46.4133 68.4943,-46.4132"/>
</g>
<!-- Forger -->
<g id="node4" class="node">
<title>Forger</title>
<ellipse fill="#ff8c00" stroke="#000000" cx="303.9942" cy="-234" rx="34.394" ry="18"/>
<text text-anchor="middle" x="303.9942" y="-230.3" font-family="Times,serif" font-size="14.00" fill="#000000">Forger</text>
</g>
<!-- Forger&#45;&gt;ForgingSettings -->
<g id="edge3" class="edge">
<title>Forger&#45;&gt;ForgingSettings</title>
<path fill="none" stroke="#000000" d="M276.8067,-222.75C249.9544,-211.6387 208.3681,-194.4306 176.3017,-181.1617"/>
<polygon fill="#000000" stroke="#000000" points="177.261,-177.7709 166.6825,-177.1814 174.5845,-184.239 177.261,-177.7709"/>
</g>
<!-- ActorRef -->
<g id="node5" class="node">
<title>ActorRef</title>
<ellipse fill="none" stroke="#000000" cx="257.9942" cy="-162" rx="43.5923" ry="18"/>
<text text-anchor="middle" x="257.9942" y="-158.3" font-family="Times,serif" font-size="14.00" fill="#000000">ActorRef</text>
</g>
<!-- Forger&#45;&gt;ActorRef -->
<g id="edge4" class="edge">
<title>Forger&#45;&gt;ActorRef</title>
<path fill="none" stroke="#000000" d="M292.8589,-216.5708C287.4185,-208.0553 280.7583,-197.6308 274.7222,-188.183"/>
<polygon fill="#000000" stroke="#000000" points="277.5198,-186.0608 269.1864,-179.5182 271.6209,-189.8296 277.5198,-186.0608"/>
</g>
<!-- Actor -->
<g id="node6" class="node">
<title>Actor</title>
<ellipse fill="none" stroke="#000000" cx="349.9942" cy="-162" rx="30.5947" ry="18"/>
<text text-anchor="middle" x="349.9942" y="-158.3" font-family="Times,serif" font-size="14.00" fill="#000000">Actor</text>
</g>
<!-- Forger&#45;&gt;Actor -->
<g id="edge5" class="edge">
<title>Forger&#45;&gt;Actor</title>
<path fill="none" stroke="#000000" d="M315.1295,-216.5708C320.6103,-207.9922 327.3289,-197.4762 333.4003,-187.9732"/>
<polygon fill="#000000" stroke="#000000" points="336.527,-189.58 338.9615,-179.2687 330.6281,-185.8113 336.527,-189.58"/>
</g>
<!-- ActorLogging -->
<g id="node7" class="node">
<title>ActorLogging</title>
<ellipse fill="none" stroke="#000000" cx="458.9942" cy="-162" rx="60.3893" ry="18"/>
<text text-anchor="middle" x="458.9942" y="-158.3" font-family="Times,serif" font-size="14.00" fill="#000000">ActorLogging</text>
</g>
<!-- Forger&#45;&gt;ActorLogging -->
<g id="edge6" class="edge">
<title>Forger&#45;&gt;ActorLogging</title>
<path fill="none" stroke="#000000" d="M329.9377,-221.9488C353.7082,-210.907 389.3214,-194.3642 417.1191,-181.4517"/>
<polygon fill="#000000" stroke="#000000" points="418.6234,-184.6121 426.2182,-177.225 415.6744,-178.2636 418.6234,-184.6121"/>
</g>
</g>
</svg>
