<?xml version="1.0" encoding="UTF-8" standalone="no"?>
<!DOCTYPE svg PUBLIC "-//W3C//DTD SVG 1.1//EN"
 "http://www.w3.org/Graphics/SVG/1.1/DTD/svg11.dtd">
<!-- Generated by graphviz version 2.40.1 (20161225.0304)
 -->
<!-- Title: diagram Pages: 1 -->
<svg width="472pt" height="260pt"
 viewBox="0.00 0.00 471.74 260.00" xmlns="http://www.w3.org/2000/svg" xmlns:xlink="http://www.w3.org/1999/xlink">
<g id="graph0" class="graph" transform="scale(1 1) rotate(0) translate(4 256)">
<title>diagram</title>
<polygon fill="#ffffff" stroke="transparent" points="-4,4 -4,-256 467.7364,-256 467.7364,4 -4,4"/>
<!-- MessageHandler -->
<g id="node1" class="node">
<title>MessageHandler</title>
<ellipse fill="#deb887" stroke="#000000" cx="70.1938" cy="-162" rx="70.3881" ry="18"/>
<text text-anchor="middle" x="70.1938" y="-158.3" font-family="Times,serif" font-size="14.00" fill="#000000">MessageHandler</text>
</g>
<!-- NetworkController -->
<g id="node2" class="node">
<title>NetworkController</title>
<ellipse fill="#ff8c00" stroke="#000000" cx="273.1938" cy="-234" rx="77.1866" ry="18"/>
<text text-anchor="middle" x="273.1938" y="-230.3" font-family="Times,serif" font-size="14.00" fill="#000000">NetworkController</text>
</g>
<!-- NetworkController&#45;&gt;MessageHandler -->
<g id="edge2" class="edge">
<title>NetworkController&#45;&gt;MessageHandler</title>
<path fill="none" stroke="#000000" d="M230.6383,-218.9064C198.7875,-207.6096 155.086,-192.1096 121.3348,-180.1387"/>
<polygon fill="#000000" stroke="#000000" points="122.2463,-176.7484 111.6516,-176.7043 119.9064,-183.3457 122.2463,-176.7484"/>
</g>
<!-- Settings -->
<g id="node3" class="node">
<title>Settings</title>
<ellipse fill="#5f9ea0" stroke="#000000" cx="198.1938" cy="-90" rx="38.9931" ry="18"/>
<text text-anchor="middle" x="198.1938" y="-86.3" font-family="Times,serif" font-size="14.00" fill="#000000">Settings</text>
</g>
<!-- NetworkController&#45;&gt;Settings -->
<g id="edge1" class="edge">
<title>NetworkController&#45;&gt;Settings</title>
<path fill="none" stroke="#000000" d="M231.6929,-218.5957C214.7188,-209.9989 196.833,-197.4345 187.1938,-180 176.6056,-160.8493 180.7606,-135.9581 186.7689,-117.2081"/>
<polygon fill="#000000" stroke="#000000" points="190.0748,-118.3575 190.1132,-107.7627 183.4762,-116.021 190.0748,-118.3575"/>
</g>
<!-- UPnP -->
<g id="node4" class="node">
<title>UPnP</title>
<ellipse fill="#ff8c00" stroke="#000000" cx="227.1938" cy="-162" rx="31.3957" ry="18"/>
<text text-anchor="middle" x="227.1938" y="-158.3" font-family="Times,serif" font-size="14.00" fill="#000000">UPnP</text>
</g>
<!-- NetworkController&#45;&gt;UPnP -->
<g id="edge3" class="edge">
<title>NetworkController&#45;&gt;UPnP</title>
<path fill="none" stroke="#000000" d="M261.586,-215.8314C256.0999,-207.2444 249.4569,-196.8466 243.4777,-187.4878"/>
<polygon fill="#000000" stroke="#000000" points="246.3412,-185.4689 238.0078,-178.9263 240.4423,-189.2376 246.3412,-185.4689"/>
</g>
<!-- ActorRef -->
<g id="node5" class="node">
<title>ActorRef</title>
<ellipse fill="none" stroke="#000000" cx="320.1938" cy="-162" rx="43.5923" ry="18"/>
<text text-anchor="middle" x="320.1938" y="-158.3" font-family="Times,serif" font-size="14.00" fill="#000000">ActorRef</text>
</g>
<!-- NetworkController&#45;&gt;ActorRef -->
<g id="edge4" class="edge">
<title>NetworkController&#45;&gt;ActorRef</title>
<path fill="none" stroke="#000000" d="M284.8118,-216.2022C290.3326,-207.7448 297.0407,-197.4685 303.1256,-188.147"/>
<polygon fill="#000000" stroke="#000000" points="306.174,-189.88 308.7094,-179.593 300.3123,-186.0536 306.174,-189.88"/>
</g>
<!-- Actor -->
<g id="node6" class="node">
<title>Actor</title>
<ellipse fill="none" stroke="#000000" cx="412.1938" cy="-162" rx="30.5947" ry="18"/>
<text text-anchor="middle" x="412.1938" y="-158.3" font-family="Times,serif" font-size="14.00" fill="#000000">Actor</text>
</g>
<!-- NetworkController&#45;&gt;Actor -->
<g id="edge5" class="edge">
<title>NetworkController&#45;&gt;Actor</title>
<path fill="none" stroke="#000000" d="M305.0832,-217.4817C327.5256,-205.8569 357.4554,-190.3537 379.9714,-178.6907"/>
<polygon fill="#000000" stroke="#000000" points="381.8541,-181.6573 389.1238,-173.9499 378.6344,-175.4416 381.8541,-181.6573"/>
</g>
<!-- ScorexLogging -->
<g id="node7" class="node">
<title>ScorexLogging</title>
<ellipse fill="#5f9ea0" stroke="#000000" cx="265.1938" cy="-18" rx="64.9885" ry="18"/>
<text text-anchor="middle" x="265.1938" y="-14.3" font-family="Times,serif" font-size="14.00" fill="#000000">ScorexLogging</text>
</g>
<!-- NetworkController&#45;&gt;ScorexLogging -->
<g id="edge6" class="edge">
<title>NetworkController&#45;&gt;ScorexLogging</title>
<path fill="none" stroke="#000000" d="M335.6435,-223.2889C381.4443,-214.0125 438.0154,-199.0868 452.1938,-180 498.4904,-117.676 386.1912,-62.6018 316.1699,-35.6087"/>
<polygon fill="#000000" stroke="#000000" points="317.1827,-32.2499 306.5911,-31.9885 314.7079,-38.7979 317.1827,-32.2499"/>
</g>
<!-- Settings&#45;&gt;ScorexLogging -->
<g id="edge9" class="edge">
<title>Settings&#45;&gt;ScorexLogging</title>
<path fill="none" stroke="#000000" d="M213.7333,-73.3008C222.1123,-64.2965 232.6195,-53.0052 241.9514,-42.9769"/>
<polygon fill="#000000" stroke="#000000" points="244.5536,-45.3182 248.8037,-35.6132 239.4291,-40.5496 244.5536,-45.3182"/>
</g>
<!-- UPnP&#45;&gt;Settings -->
<g id="edge7" class="edge">
<title>UPnP&#45;&gt;Settings</title>
<path fill="none" stroke="#000000" d="M220.0252,-144.2022C216.7487,-136.0675 212.7945,-126.2501 209.1566,-117.2181"/>
<polygon fill="#000000" stroke="#000000" points="212.3631,-115.8107 205.3804,-107.8425 205.87,-118.4261 212.3631,-115.8107"/>
</g>
<!-- UPnP&#45;&gt;ScorexLogging -->
<g id="edge8" class="edge">
<title>UPnP&#45;&gt;ScorexLogging</title>
<path fill="none" stroke="#000000" d="M234.1196,-144.187C238.0116,-133.7494 242.7616,-120.2494 246.1938,-108 251.9296,-87.5291 256.8379,-64.0109 260.2283,-46.1505"/>
<polygon fill="#000000" stroke="#000000" points="263.7106,-46.5672 262.0904,-36.097 256.8277,-45.2923 263.7106,-46.5672"/>
</g>
</g>
</svg>
