<?xml version="1.0" encoding="UTF-8" standalone="no"?>
<!DOCTYPE svg PUBLIC "-//W3C//DTD SVG 1.1//EN"
 "http://www.w3.org/Graphics/SVG/1.1/DTD/svg11.dtd">
<!-- Generated by graphviz version 2.40.1 (20161225.0304)
 -->
<!-- Title: diagram Pages: 1 -->
<svg width="323pt" height="116pt"
 viewBox="0.00 0.00 322.54 116.00" xmlns="http://www.w3.org/2000/svg" xmlns:xlink="http://www.w3.org/1999/xlink">
<g id="graph0" class="graph" transform="scale(1 1) rotate(0) translate(4 112)">
<title>diagram</title>
<polygon fill="#ffffff" stroke="transparent" points="-4,4 -4,-112 318.5415,-112 318.5415,4 -4,4"/>
<!-- ScorexLogging -->
<g id="node1" class="node">
<title>ScorexLogging</title>
<ellipse fill="#5f9ea0" stroke="#000000" cx="64.9942" cy="-18" rx="64.9885" ry="18"/>
<text text-anchor="middle" x="64.9942" y="-14.3" font-family="Times,serif" font-size="14.00" fill="#000000">ScorexLogging</text>
</g>
<!-- PeerSynchronizer -->
<g id="node2" class="node">
<title>PeerSynchronizer</title>
<ellipse fill="#ff8c00" stroke="#000000" cx="191.9942" cy="-90" rx="73.387" ry="18"/>
<text text-anchor="middle" x="191.9942" y="-86.3" font-family="Times,serif" font-size="14.00" fill="#000000">PeerSynchronizer</text>
</g>
<!-- PeerSynchronizer&#45;&gt;ScorexLogging -->
<g id="edge4" class="edge">
<title>PeerSynchronizer&#45;&gt;ScorexLogging</title>
<path fill="none" stroke="#000000" d="M162.5387,-73.3008C144.7001,-63.1876 121.7724,-50.1892 102.628,-39.3357"/>
<polygon fill="#000000" stroke="#000000" points="104.2776,-36.2476 93.8522,-34.3604 100.8253,-42.3371 104.2776,-36.2476"/>
</g>
<!-- ActorRef -->
<g id="node3" class="node">
<title>ActorRef</title>
<ellipse fill="none" stroke="#000000" cx="191.9942" cy="-18" rx="43.5923" ry="18"/>
<text text-anchor="middle" x="191.9942" y="-14.3" font-family="Times,serif" font-size="14.00" fill="#000000">ActorRef</text>
</g>
<!-- PeerSynchronizer&#45;&gt;ActorRef -->
<g id="edge1" class="edge">
<title>PeerSynchronizer&#45;&gt;ActorRef</title>
<path fill="none" stroke="#000000" d="M186.0418,-71.8314C185.2799,-64.0125 185.0638,-54.6923 185.3938,-46.0221"/>
<polygon fill="#000000" stroke="#000000" points="188.8946,-46.1239 186.067,-35.9134 181.9101,-45.6587 188.8946,-46.1239"/>
</g>
<!-- PeerSynchronizer&#45;&gt;ActorRef -->
<g id="edge2" class="edge">
<title>PeerSynchronizer&#45;&gt;ActorRef</title>
<path fill="none" stroke="#000000" d="M197.9466,-71.8314C198.7086,-64.0125 198.9246,-54.6923 198.5947,-46.0221"/>
<polygon fill="#000000" stroke="#000000" points="202.0783,-45.6587 197.9215,-35.9134 195.0938,-46.1239 202.0783,-45.6587"/>
</g>
<!-- Actor -->
<g id="node4" class="node">
<title>Actor</title>
<ellipse fill="none" stroke="#000000" cx="283.9942" cy="-18" rx="30.5947" ry="18"/>
<text text-anchor="middle" x="283.9942" y="-14.3" font-family="Times,serif" font-size="14.00" fill="#000000">Actor</text>
</g>
<!-- PeerSynchronizer&#45;&gt;Actor -->
<g id="edge3" class="edge">
<title>PeerSynchronizer&#45;&gt;Actor</title>
<path fill="none" stroke="#000000" d="M214.2649,-72.5708C227.2123,-62.438 243.6136,-49.6023 257.2562,-38.9255"/>
<polygon fill="#000000" stroke="#000000" points="259.6206,-41.5195 265.3386,-32.6001 255.3064,-36.0069 259.6206,-41.5195"/>
</g>
</g>
</svg>
