<?xml version="1.0" encoding="UTF-8" standalone="no"?>
<!DOCTYPE svg PUBLIC "-//W3C//DTD SVG 1.1//EN"
 "http://www.w3.org/Graphics/SVG/1.1/DTD/svg11.dtd">
<!-- Generated by graphviz version 2.40.1 (20161225.0304)
 -->
<!-- Title: diagram Pages: 1 -->
<svg width="226pt" height="188pt"
 viewBox="0.00 0.00 225.54 188.00" xmlns="http://www.w3.org/2000/svg" xmlns:xlink="http://www.w3.org/1999/xlink">
<g id="graph0" class="graph" transform="scale(1 1) rotate(0) translate(4 184)">
<title>diagram</title>
<polygon fill="#ffffff" stroke="transparent" points="-4,4 -4,-184 221.5415,-184 221.5415,4 -4,4"/>
<!-- ScorexLogging -->
<g id="node1" class="node">
<title>ScorexLogging</title>
<ellipse fill="#5f9ea0" stroke="#000000" cx="64.9942" cy="-18" rx="64.9885" ry="18"/>
<text text-anchor="middle" x="64.9942" y="-14.3" font-family="Times,serif" font-size="14.00" fill="#000000">ScorexLogging</text>
</g>
<!-- Settings -->
<g id="node2" class="node">
<title>Settings</title>
<ellipse fill="#5f9ea0" stroke="#000000" cx="98.9942" cy="-90" rx="38.9931" ry="18"/>
<text text-anchor="middle" x="98.9942" y="-86.3" font-family="Times,serif" font-size="14.00" fill="#000000">Settings</text>
</g>
<!-- Settings&#45;&gt;ScorexLogging -->
<g id="edge1" class="edge">
<title>Settings&#45;&gt;ScorexLogging</title>
<path fill="none" stroke="#000000" d="M90.5897,-72.2022C86.7367,-64.0428 82.0842,-54.1904 77.8084,-45.1358"/>
<polygon fill="#000000" stroke="#000000" points="80.9732,-43.6411 73.5382,-36.0931 74.6435,-46.6302 80.9732,-43.6411"/>
</g>
<!-- PeerManager -->
<g id="node3" class="node">
<title>PeerManager</title>
<ellipse fill="#ff8c00" stroke="#000000" cx="98.9942" cy="-162" rx="57.6901" ry="18"/>
<text text-anchor="middle" x="98.9942" y="-158.3" font-family="Times,serif" font-size="14.00" fill="#000000">PeerManager</text>
</g>
<!-- PeerManager&#45;&gt;ScorexLogging -->
<g id="edge4" class="edge">
<title>PeerManager&#45;&gt;ScorexLogging</title>
<path fill="none" stroke="#000000" d="M78.0284,-145.0961C67.7721,-135.4504 56.4771,-122.4212 50.9942,-108 43.3604,-87.9214 47.7703,-63.8097 53.5916,-45.5989"/>
<polygon fill="#000000" stroke="#000000" points="56.898,-46.7468 56.9035,-36.152 50.2922,-44.431 56.898,-46.7468"/>
</g>
<!-- PeerManager&#45;&gt;Settings -->
<g id="edge2" class="edge">
<title>PeerManager&#45;&gt;Settings</title>
<path fill="none" stroke="#000000" d="M98.9942,-143.8314C98.9942,-136.131 98.9942,-126.9743 98.9942,-118.4166"/>
<polygon fill="#000000" stroke="#000000" points="102.4943,-118.4132 98.9942,-108.4133 95.4943,-118.4133 102.4943,-118.4132"/>
</g>
<!-- Actor -->
<g id="node4" class="node">
<title>Actor</title>
<ellipse fill="none" stroke="#000000" cx="186.9942" cy="-90" rx="30.5947" ry="18"/>
<text text-anchor="middle" x="186.9942" y="-86.3" font-family="Times,serif" font-size="14.00" fill="#000000">Actor</text>
</g>
<!-- PeerManager&#45;&gt;Actor -->
<g id="edge3" class="edge">
<title>PeerManager&#45;&gt;Actor</title>
<path fill="none" stroke="#000000" d="M119.849,-144.937C132.2235,-134.8124 148.0124,-121.8943 161.1702,-111.1287"/>
<polygon fill="#000000" stroke="#000000" points="163.4455,-113.7894 168.9688,-104.7481 159.0128,-108.3717 163.4455,-113.7894"/>
</g>
</g>
</svg>
