<?xml version="1.0" encoding="UTF-8" standalone="no"?>
<!DOCTYPE svg PUBLIC "-//W3C//DTD SVG 1.1//EN"
 "http://www.w3.org/Graphics/SVG/1.1/DTD/svg11.dtd">
<!-- Generated by graphviz version 2.40.1 (20161225.0304)
 -->
<!-- Title: diagram Pages: 1 -->
<svg width="325pt" height="116pt"
 viewBox="0.00 0.00 325.39 116.00" xmlns="http://www.w3.org/2000/svg" xmlns:xlink="http://www.w3.org/1999/xlink">
<g id="graph0" class="graph" transform="scale(1 1) rotate(0) translate(4 112)">
<title>diagram</title>
<polygon fill="#ffffff" stroke="transparent" points="-4,4 -4,-112 321.3933,-112 321.3933,4 -4,4"/>
<!-- Buffering -->
<g id="node1" class="node">
<title>Buffering</title>
<ellipse fill="#5f9ea0" stroke="#000000" cx="44.846" cy="-18" rx="44.6926" ry="18"/>
<text text-anchor="middle" x="44.846" y="-14.3" font-family="Times,serif" font-size="14.00" fill="#000000">Buffering</text>
</g>
<!-- ScorexLogging -->
<g id="node2" class="node">
<title>ScorexLogging</title>
<ellipse fill="#5f9ea0" stroke="#000000" cx="172.846" cy="-18" rx="64.9885" ry="18"/>
<text text-anchor="middle" x="172.846" y="-14.3" font-family="Times,serif" font-size="14.00" fill="#000000">ScorexLogging</text>
</g>
<!-- PeerConnectionHandler -->
<g id="node3" class="node">
<title>PeerConnectionHandler</title>
<ellipse fill="#deb887" stroke="#000000" cx="172.846" cy="-90" rx="94.7833" ry="18"/>
<text text-anchor="middle" x="172.846" y="-86.3" font-family="Times,serif" font-size="14.00" fill="#000000">PeerConnectionHandler</text>
</g>
<!-- PeerConnectionHandler&#45;&gt;Buffering -->
<g id="edge2" class="edge">
<title>PeerConnectionHandler&#45;&gt;Buffering</title>
<path fill="none" stroke="#000000" d="M142.5118,-72.937C123.7484,-62.3826 99.5881,-48.7924 79.9921,-37.7697"/>
<polygon fill="#000000" stroke="#000000" points="81.4966,-34.6002 71.0649,-32.7481 78.0647,-40.7013 81.4966,-34.6002"/>
</g>
<!-- PeerConnectionHandler&#45;&gt;ScorexLogging -->
<g id="edge3" class="edge">
<title>PeerConnectionHandler&#45;&gt;ScorexLogging</title>
<path fill="none" stroke="#000000" d="M172.846,-71.8314C172.846,-64.131 172.846,-54.9743 172.846,-46.4166"/>
<polygon fill="#000000" stroke="#000000" points="176.3461,-46.4132 172.846,-36.4133 169.3461,-46.4133 176.3461,-46.4132"/>
</g>
<!-- Actor -->
<g id="node4" class="node">
<title>Actor</title>
<ellipse fill="none" stroke="#000000" cx="286.846" cy="-18" rx="30.5947" ry="18"/>
<text text-anchor="middle" x="286.846" y="-14.3" font-family="Times,serif" font-size="14.00" fill="#000000">Actor</text>
</g>
<!-- PeerConnectionHandler&#45;&gt;Actor -->
<g id="edge1" class="edge">
<title>PeerConnectionHandler&#45;&gt;Actor</title>
<path fill="none" stroke="#000000" d="M200.1519,-72.7542C217.3164,-61.9135 239.4651,-47.9248 257.0787,-36.8004"/>
<polygon fill="#000000" stroke="#000000" points="259.2397,-39.5752 265.8256,-31.276 255.5017,-33.6568 259.2397,-39.5752"/>
</g>
</g>
</svg>
