<?xml version="1.0" encoding="UTF-8" standalone="no"?>
<!DOCTYPE svg PUBLIC "-//W3C//DTD SVG 1.1//EN"
 "http://www.w3.org/Graphics/SVG/1.1/DTD/svg11.dtd">
<!-- Generated by graphviz version 2.40.1 (20161225.0304)
 -->
<!-- Title: diagram Pages: 1 -->
<svg width="191pt" height="116pt"
 viewBox="0.00 0.00 191.28 116.00" xmlns="http://www.w3.org/2000/svg" xmlns:xlink="http://www.w3.org/1999/xlink">
<g id="graph0" class="graph" transform="scale(1 1) rotate(0) translate(4 112)">
<title>diagram</title>
<polygon fill="#ffffff" stroke="transparent" points="-4,4 -4,-112 187.2837,-112 187.2837,4 -4,4"/>
<!-- PolyTransferGenerator -->
<g id="node1" class="node">
<title>PolyTransferGenerator</title>
<ellipse fill="#ff8c00" stroke="#000000" cx="91.6419" cy="-90" rx="91.784" ry="18"/>
<text text-anchor="middle" x="91.6419" y="-86.3" font-family="Times,serif" font-size="14.00" fill="#000000">PolyTransferGenerator</text>
</g>
<!-- ActorRef -->
<g id="node2" class="node">
<title>ActorRef</title>
<ellipse fill="none" stroke="#000000" cx="45.6419" cy="-18" rx="43.5923" ry="18"/>
<text text-anchor="middle" x="45.6419" y="-14.3" font-family="Times,serif" font-size="14.00" fill="#000000">ActorRef</text>
</g>
<!-- PolyTransferGenerator&#45;&gt;ActorRef -->
<g id="edge1" class="edge">
<title>PolyTransferGenerator&#45;&gt;ActorRef</title>
<path fill="none" stroke="#000000" d="M80.0341,-71.8314C74.6287,-63.3707 68.1001,-53.1521 62.19,-43.9014"/>
<polygon fill="#000000" stroke="#000000" points="65.1032,-41.9603 56.7699,-35.4177 59.2043,-45.7291 65.1032,-41.9603"/>
</g>
<!-- Actor -->
<g id="node3" class="node">
<title>Actor</title>
<ellipse fill="none" stroke="#000000" cx="137.6419" cy="-18" rx="30.5947" ry="18"/>
<text text-anchor="middle" x="137.6419" y="-14.3" font-family="Times,serif" font-size="14.00" fill="#000000">Actor</text>
</g>
<!-- PolyTransferGenerator&#45;&gt;Actor -->
<g id="edge2" class="edge">
<title>PolyTransferGenerator&#45;&gt;Actor</title>
<path fill="none" stroke="#000000" d="M103.2496,-71.8314C108.7357,-63.2444 115.3787,-52.8466 121.358,-43.4878"/>
<polygon fill="#000000" stroke="#000000" points="124.3934,-45.2376 126.8278,-34.9263 118.4945,-41.4689 124.3934,-45.2376"/>
</g>
</g>
</svg>
