<?xml version="1.0" encoding="UTF-8" standalone="no"?>
<!DOCTYPE svg PUBLIC "-//W3C//DTD SVG 1.1//EN"
 "http://www.w3.org/Graphics/SVG/1.1/DTD/svg11.dtd">
<!-- Generated by graphviz version 2.40.1 (20161225.0304)
 -->
<!-- Title: diagram Pages: 1 -->
<svg width="702pt" height="188pt"
 viewBox="0.00 0.00 701.84 188.00" xmlns="http://www.w3.org/2000/svg" xmlns:xlink="http://www.w3.org/1999/xlink">
<g id="graph0" class="graph" transform="scale(1 1) rotate(0) translate(4 184)">
<title>diagram</title>
<polygon fill="#ffffff" stroke="transparent" points="-4,4 -4,-184 697.8379,-184 697.8379,4 -4,4"/>
<!-- ScorexLogging -->
<g id="node1" class="node">
<title>ScorexLogging</title>
<ellipse fill="#5f9ea0" stroke="#000000" cx="64.9942" cy="-18" rx="64.9885" ry="18"/>
<text text-anchor="middle" x="64.9942" y="-14.3" font-family="Times,serif" font-size="14.00" fill="#000000">ScorexLogging</text>
</g>
<!-- Settings -->
<g id="node2" class="node">
<title>Settings</title>
<ellipse fill="#5f9ea0" stroke="#000000" cx="64.9942" cy="-90" rx="38.9931" ry="18"/>
<text text-anchor="middle" x="64.9942" y="-86.3" font-family="Times,serif" font-size="14.00" fill="#000000">Settings</text>
</g>
<!-- Settings&#45;&gt;ScorexLogging -->
<g id="edge1" class="edge">
<title>Settings&#45;&gt;ScorexLogging</title>
<path fill="none" stroke="#000000" d="M64.9942,-71.8314C64.9942,-64.131 64.9942,-54.9743 64.9942,-46.4166"/>
<polygon fill="#000000" stroke="#000000" points="68.4943,-46.4132 64.9942,-36.4133 61.4943,-46.4133 68.4943,-46.4132"/>
</g>
<!-- SwaggerDocService -->
<g id="node3" class="node">
<title>SwaggerDocService</title>
<ellipse fill="#ff8c00" stroke="#000000" cx="301.9942" cy="-162" rx="82.5854" ry="18"/>
<text text-anchor="middle" x="301.9942" y="-158.3" font-family="Times,serif" font-size="14.00" fill="#000000">SwaggerDocService</text>
</g>
<!-- SwaggerDocService&#45;&gt;Settings -->
<g id="edge4" class="edge">
<title>SwaggerDocService&#45;&gt;Settings</title>
<path fill="none" stroke="#000000" d="M249.0994,-148.1121C211.0111,-137.8147 158.5286,-123.0156 112.9942,-108 110.2208,-107.0854 107.3698,-106.1096 104.5066,-105.1032"/>
<polygon fill="#000000" stroke="#000000" points="105.4146,-101.71 94.8203,-101.6086 103.039,-108.2946 105.4146,-101.71"/>
</g>
<!-- ActorSystem -->
<g id="node4" class="node">
<title>ActorSystem</title>
<ellipse fill="none" stroke="#000000" cx="178.9942" cy="-90" rx="57.3905" ry="18"/>
<text text-anchor="middle" x="178.9942" y="-86.3" font-family="Times,serif" font-size="14.00" fill="#000000">ActorSystem</text>
</g>
<!-- SwaggerDocService&#45;&gt;ActorSystem -->
<g id="edge2" class="edge">
<title>SwaggerDocService&#45;&gt;ActorSystem</title>
<path fill="none" stroke="#000000" d="M273.1562,-145.1192C255.8263,-134.9749 233.6219,-121.9772 215.1281,-111.1515"/>
<polygon fill="#000000" stroke="#000000" points="216.7833,-108.0649 206.385,-106.0336 213.247,-114.106 216.7833,-108.0649"/>
</g>
<!-- Seq[Type] -->
<g id="node5" class="node">
<title>Seq[Type]</title>
<ellipse fill="none" stroke="#000000" cx="301.9942" cy="-90" rx="48.1917" ry="18"/>
<text text-anchor="middle" x="301.9942" y="-86.3" font-family="Times,serif" font-size="14.00" fill="#000000">Seq[Type]</text>
</g>
<!-- SwaggerDocService&#45;&gt;Seq[Type] -->
<g id="edge3" class="edge">
<title>SwaggerDocService&#45;&gt;Seq[Type]</title>
<path fill="none" stroke="#000000" d="M301.9942,-143.8314C301.9942,-136.131 301.9942,-126.9743 301.9942,-118.4166"/>
<polygon fill="#000000" stroke="#000000" points="305.4943,-118.4132 301.9942,-108.4133 298.4943,-118.4133 305.4943,-118.4132"/>
</g>
<!-- SwaggerHttpService -->
<g id="node6" class="node">
<title>SwaggerHttpService</title>
<ellipse fill="none" stroke="#000000" cx="450.9942" cy="-90" rx="83.3857" ry="18"/>
<text text-anchor="middle" x="450.9942" y="-86.3" font-family="Times,serif" font-size="14.00" fill="#000000">SwaggerHttpService</text>
</g>
<!-- SwaggerDocService&#45;&gt;SwaggerHttpService -->
<g id="edge5" class="edge">
<title>SwaggerDocService&#45;&gt;SwaggerHttpService</title>
<path fill="none" stroke="#000000" d="M336.1778,-145.4817C357.4727,-135.1916 385.0564,-121.8626 407.8501,-110.8482"/>
<polygon fill="#000000" stroke="#000000" points="409.4886,-113.9437 416.9697,-106.4414 406.443,-107.641 409.4886,-113.9437"/>
</g>
<!-- HasActorSystem -->
<g id="node7" class="node">
<title>HasActorSystem</title>
<ellipse fill="none" stroke="#000000" cx="622.9942" cy="-90" rx="70.6878" ry="18"/>
<text text-anchor="middle" x="622.9942" y="-86.3" font-family="Times,serif" font-size="14.00" fill="#000000">HasActorSystem</text>
</g>
<!-- SwaggerDocService&#45;&gt;HasActorSystem -->
<g id="edge6" class="edge">
<title>SwaggerDocService&#45;&gt;HasActorSystem</title>
<path fill="none" stroke="#000000" d="M359.9456,-149.0302C408.7648,-138.1006 480.4493,-122.0434 542.9942,-108 548.3767,-106.7915 553.9627,-105.5364 559.5672,-104.2765"/>
<polygon fill="#000000" stroke="#000000" points="560.647,-107.6212 569.6356,-102.0126 559.1113,-100.7917 560.647,-107.6212"/>
</g>
</g>
</svg>
