<?xml version="1.0" encoding="UTF-8"?>
 <svg xmlns="http://www.w3.org/2000/svg" width="6023" height="1440"
    viewBox="0 0 6023 1440" fill="none">
    <path fill-rule="evenodd" clip-rule="evenodd"
        d="M1440 960H1521.51L1544.94 896.604L1675.47 896.604L1675.47 896.604L1806 896.604L1829.43 960H1910.94L1729.81 480L1675.47 480H1621.13L1440 960ZM1675.47 833.208H1675.47H1568.37L1675.47 543.396L1782.58 833.208H1675.47ZM2644.53 543.396H2526.79V769.811H2644.53C2707.05 769.811 2753.21 719.127 2753.21 656.604C2753.21 594.081 2707.05 543.396 2644.53 543.396ZM2658.11 480H2526.79H2445.28V833.208V960H2526.79V833.208H2658.11C2755.65 833.208 2834.72 754.139 2834.72 656.604C2834.72 559.068 2755.65 480 2658.11 480ZM2916.23 960H2834.72L3015.85 480H3070.19L3124.53 480L3305.66 960H3224.15L3200.72 896.604L3070.19 896.604H2939.66L2916.23 960ZM3070.19 833.208H3177.29L3070.19 543.396L2963.08 833.208H3070.19ZM3858.11 960H3776.6L3957.74 480H4012.08V543.396L3904.97 833.208H4012.08H4119.18L4012.08 543.396V480H4066.42L4247.55 960H4166.04L4142.61 896.604L4012.08 896.604H3881.54L3858.11 960ZM4247.55 480H4636.98V543.396L4483.02 543.396V960H4401.51V543.396L4247.55 543.396V480ZM5098.87 480H4709.43V765.283C4709.43 872.822 4796.61 960 4904.15 960C5011.69 960 5098.87 872.822 5098.87 765.283V480ZM5017.36 783.396V480H4790.94V783.396C4790.94 845.919 4841.63 896.604 4904.15 896.604C4966.67 896.604 5017.36 845.919 5017.36 783.396ZM5366.04 480C5497.36 480 5542.64 543.396 5542.64 543.396L5501.89 593.208C5501.89 593.208 5461.13 543.396 5366.04 543.396C5329.81 543.396 5270.94 552.453 5270.94 611.321C5270.94 652.829 5322.71 669.317 5381.05 687.899C5456.37 711.889 5542.64 739.369 5542.64 828.679C5542.64 914.717 5461.13 960 5366.04 960C5234.72 960 5189.43 896.604 5189.43 896.604L5230.19 846.792C5230.19 846.792 5270.94 896.604 5366.04 896.604C5402.26 896.604 5461.13 887.547 5461.13 828.679C5461.13 787.171 5409.37 770.683 5351.03 752.101C5275.71 728.112 5189.43 700.632 5189.43 611.321C5189.43 525.283 5270.94 480 5366.04 480ZM3378.11 480V833.208V960H3459.62V833.208H3540.82L3658.87 960H3740.38L3620.1 830.812C3703.76 816.914 3767.55 744.208 3767.55 656.604C3767.55 559.068 3688.48 480 3590.94 480H3459.62H3378.11ZM3577.36 543.396H3459.62V769.811H3577.36C3639.88 769.811 3686.04 719.127 3686.04 656.604C3686.04 594.081 3639.88 543.396 3577.36 543.396ZM2064.91 543.396H2182.64C2245.16 543.396 2291.32 594.081 2291.32 656.604C2291.32 719.127 2245.16 769.811 2182.64 769.811H2064.91V543.396ZM2064.91 480H2196.23C2293.76 480 2372.83 559.068 2372.83 656.604C2372.83 754.139 2293.76 833.208 2196.23 833.208H2064.91V960H1983.4V833.208V480H2064.91Z"
        fill="#f3f3f8"></path>
    <circle cx="1140" cy="1140" r="60" fill="#2E314A"></circle>
    <path fill-rule="evenodd" clip-rule="evenodd"
        d="M1059.41 1059.41C1246.87 871.96 1246.87 568.04 1059.41 380.589C871.962 193.137 568.043 193.137 380.591 380.589C193.14 568.04 193.14 871.96 380.591 1059.41C568.043 1246.86 871.962 1246.86 1059.41 1059.41ZM923.649 923.647C1050.17 797.125 1069.95 604.28 982.977 457.026C835.722 370.056 642.878 389.832 516.356 516.354C389.834 642.875 370.058 835.72 457.028 982.975C604.283 1069.94 797.128 1050.17 923.649 923.647Z"
        fill="#2E314A"></path>
    <path fill-rule="evenodd" clip-rule="evenodd"
        d="M1059.41 1059.41C1209.38 909.45 1209.38 666.315 1059.41 516.353C1031.3 488.236 999.903 465.39 966.462 447.816C972.026 450.74 977.533 453.81 982.978 457.026C1069.95 604.281 1050.17 797.125 923.65 923.647C797.128 1050.17 604.283 1069.94 457.028 982.975C473.141 1010.26 492.917 1035.97 516.356 1059.41C666.318 1209.37 909.453 1209.37 1059.41 1059.41Z"
        fill="url(#paint0_linear_1_68)"></path>
    <path fill-rule="evenodd" clip-rule="evenodd"
        d="M982.977 457.026C966.865 429.745 947.089 404.029 923.649 380.589C773.688 230.627 530.553 230.627 380.591 380.589C230.63 530.55 230.63 773.685 380.591 923.647C404.031 947.086 429.747 966.862 457.028 982.974C370.058 835.719 389.835 642.875 516.356 516.353C642.878 389.832 835.722 370.056 982.977 457.026Z"
        fill="url(#paint1_linear_1_68)"></path>
    <defs>
        <linearGradient id="paint0_linear_1_68" x1="837.476" y1="578.835" x2="974.503" y2="1173.43"
            gradientUnits="userSpaceOnUse">
            <stop offset="0.107544" stop-color="#2EC4E5"></stop>
            <stop offset="0.845668" stop-color="#2E41E5"></stop>
        </linearGradient>
        <linearGradient id="paint1_linear_1_68" x1="722.799" y1="204.749" x2="869.839" y2="777.905"
            gradientUnits="userSpaceOnUse">
            <stop offset="0.14344" stop-color="#F16767"></stop>
            <stop offset="0.812752" stop-color="#F18867"></stop>
        </linearGradient>
    </defs>
</svg>