<svg width="88" height="30" viewBox="0 0 88 30" fill="none" xmlns="http://www.w3.org/2000/svg">
<path fill-rule="evenodd" clip-rule="evenodd" d="M43.5505 21.2908H42.4237C41.9093 21.2908 41.6644 21.1234 41.6154 20.7407V2.30243C41.6154 2.11111 41.5419 1.94371 41.3949 1.82413C41.248 1.70456 41.052 1.63281 40.856 1.63281H38.2106C37.9902 1.63281 37.8432 1.70456 37.7207 1.82413C37.5982 1.94371 37.5492 2.13502 37.5492 2.30243C37.5492 2.51766 37.5982 2.66115 37.7207 2.78072C37.8432 2.9003 38.0391 2.94813 38.2106 2.94813H40.0967V20.7885C40.0967 22.0082 40.8805 22.6061 42.4237 22.6061H43.5505C43.7709 22.6061 43.9179 22.5582 44.0404 22.4387C44.1628 22.3191 44.2118 22.1517 44.2118 21.9604C44.2118 21.7691 44.1628 21.6017 44.0404 21.4821C43.9179 21.3625 43.7219 21.2908 43.5505 21.2908ZM9.8469 20.9799C9.77342 20.8603 9.62645 20.7886 9.43049 20.7407C9.23453 20.6929 9.06307 20.7168 8.8916 20.9081C7.9853 21.4343 7.07899 21.6734 6.17268 21.6734C5.26638 21.6734 4.65401 21.506 4.31108 21.1712C3.96815 20.8364 3.79669 20.2624 3.79669 19.4972V13.5185H8.62216C8.84261 13.5185 8.98958 13.4706 9.11206 13.3511C9.23453 13.2315 9.28352 13.0641 9.28352 12.8728C9.28352 12.6815 9.23453 12.514 9.11206 12.3945C8.98958 12.2749 8.79362 12.2032 8.62216 12.2032H3.79669V8.18547C3.79669 7.97024 3.72321 7.82675 3.57624 7.70718C3.42927 7.5876 3.23331 7.53978 3.03735 7.53978C2.84139 7.53978 2.64544 7.5876 2.49847 7.70718C2.3515 7.82675 2.27801 8.01807 2.27801 8.18547V12.2032H0.661358C0.440905 12.2032 0.293937 12.2749 0.171463 12.3945C0.0489888 12.514 0 12.7054 0 12.8728C0 13.088 0.0489888 13.2315 0.171463 13.3511C0.293937 13.4706 0.489895 13.5185 0.661358 13.5185H2.25352V19.4972C2.25352 20.7168 2.54746 21.6017 3.11084 22.1278C3.67422 22.6539 4.62951 22.917 5.95223 22.917C7.27495 22.917 8.49969 22.5822 9.65094 21.9365C9.8469 21.793 9.94488 21.5777 9.94488 21.3147C9.94488 21.1951 9.92038 21.0995 9.8469 20.9799ZM11.4633 17.3928C11.4633 18.9712 11.9532 20.2865 12.982 21.3387C13.9863 22.3671 15.3335 22.8932 16.9257 22.8932C18.5178 22.8932 19.8405 22.3671 20.8693 21.3387C21.8736 20.3343 22.388 19.019 22.388 17.3928C22.388 15.8144 21.8981 14.4991 20.8693 13.4469C19.865 12.4185 18.5668 11.8924 16.9502 11.8924C15.358 11.8924 14.0353 12.3946 13.0065 13.4469C11.9777 14.4752 11.4633 15.7905 11.4633 17.3928ZM19.816 20.43C19.0567 21.1953 18.1259 21.6018 16.9502 21.6018C15.7744 21.6018 14.8436 21.2192 14.0843 20.43C13.3494 19.6408 12.982 18.6364 12.982 17.3928C12.982 16.1731 13.3249 15.1448 14.0843 14.3556C14.8436 13.5664 15.7744 13.1599 16.9502 13.1599C18.1259 13.1599 19.0812 13.5664 19.816 14.3556C20.5509 15.1209 20.9183 16.1492 20.9183 17.3928C20.9183 18.6364 20.5509 19.6647 19.816 20.43ZM27.7762 14.1643C28.7804 12.6577 30.1032 11.8924 31.7443 11.8924C33.41 11.8924 34.6592 12.4185 35.5165 13.4469C36.3738 14.4991 36.8147 15.7905 36.8147 17.3689C36.8147 18.9712 36.3738 20.2865 35.492 21.3148C34.6102 22.3671 33.3855 22.8932 31.7933 22.8932C30.2011 22.8932 28.9029 22.3671 27.8986 21.2909V28.3697C27.8986 28.5371 27.8251 28.7284 27.6782 28.848C27.5312 28.9676 27.3352 29.0154 27.1393 29.0154C26.9433 29.0154 26.7474 28.9676 26.6004 28.848C26.4534 28.7284 26.38 28.5849 26.38 28.3697V13.9969C26.38 13.6382 26.2085 13.4708 25.8411 13.4708H24.4939C24.2979 13.4708 24.1264 13.4229 24.004 13.3034C23.8815 13.1838 23.8325 13.0403 23.8325 12.8251C23.8325 12.6577 23.8815 12.4664 24.004 12.3468C24.1264 12.2272 24.2734 12.1555 24.4939 12.1555H26.037C27.2373 12.1555 27.8251 12.8012 27.7762 14.1643ZM27.8986 19.9278C29.1234 21.0518 30.3481 21.6018 31.5728 21.6018C32.7976 21.6018 33.7039 21.1952 34.3408 20.43C34.9776 19.6647 35.3205 18.6125 35.3205 17.3211C35.3205 16.0297 35.0266 15.0252 34.3652 14.2839C33.7039 13.5425 32.8711 13.1599 31.7688 13.1599C30.1277 13.1599 28.8539 14.0447 27.8986 15.8144V19.9278Z" fill="#F1F4F6"/>
<path fill-rule="evenodd" clip-rule="evenodd" d="M68.7032 12.1384C70.8711 11.436 75.875 9.44123 77.0825 5.69504C78.6357 0.876161 77.4966 0 77.4966 0C77.4966 0 75.7363 1.48273 74.3557 1.92081C73.0564 2.44126 67.8335 4.7828 67.6896 11.6731L64.1565 14.5402C64.012 14.4865 63.857 14.4569 63.6969 14.4569C62.9721 14.4569 62.3508 15.0297 62.3508 15.7711C62.3508 15.8165 62.3532 15.8615 62.3579 15.9059L58.1289 18.7644C57.8943 18.5774 57.5958 18.4668 57.2772 18.4668C56.8664 18.4668 56.4889 18.6508 56.2389 18.9452L50.611 16.9617C50.5822 16.2462 50.0061 15.6709 49.266 15.7037C48.5412 15.7037 47.9199 16.2766 47.9199 17.018C47.9199 17.7256 48.5067 18.3322 49.266 18.3322C49.6551 18.3322 50.0143 18.1671 50.2637 17.8996L55.9366 19.899C55.9974 20.5548 56.5604 21.0953 57.2772 21.0953C58.0021 21.0953 58.6234 20.5224 58.6234 19.781C58.6234 19.734 58.6209 19.6877 58.616 19.6421L62.8419 16.7858C63.0723 16.9719 63.3684 17.0853 63.6969 17.0853C64.2092 17.0853 64.6698 16.7991 64.8958 16.3695L70.6454 16.4851C75.9768 22.5418 82.3429 20.7737 83.8189 20.1515C85.3721 19.5786 87.9953 19.5786 87.9953 19.5786C87.9953 19.5786 88.3404 18.0622 83.3702 14.9956C79.4694 12.6154 73.5702 14.5525 71.212 15.4963L64.9755 15.3709C64.9572 15.3179 64.9355 15.2662 64.9105 15.2161L68.7032 12.1384Z" fill="#F1F4F6"/>
</svg>
